<?xml version="1.0" encoding="utf-8"?>
<!-- Generator: Adobe Illustrator 22.1.0, SVG Export Plug-In . SVG Version: 6.00 Build 0)  -->
<svg version="1.1" id="Layer_1" xmlns="http://www.w3.org/2000/svg" xmlns:xlink="http://www.w3.org/1999/xlink" x="0px" y="0px"
	 viewBox="0 0 154.6 48" style="enable-background:new 0 0 154.6 48;" xml:space="preserve">
<style type="text/css">
	.st0{fill:#FB9733;}
	.st1{fill:#F40C65;}
	.st2{fill:#24003D;}
	.st3{fill:#361C5C;}
	.st4{fill:none;stroke:#FB9733;stroke-linecap:round;stroke-linejoin:round;stroke-miterlimit:10;}
</style>
<path class="st0" d="M760-7c0-21.8,17.7-39.5,39.5-39.5v-39.4c-43.6,0-79,35.3-79,79s35.3,79,79,79V32.6C777.7,32.5,760,14.9,760-7z
	"/>
<path class="st1" d="M608.6-5.9c0-22.1-17.9-40-40-40v-40c44.2,0,80,35.8,80,80s-35.8,80-80,80v-40C590.7,34.1,608.6,16.2,608.6-5.9
	z"/>
<g>
	<path class="st0" d="M-86.9-86.2c0,5.3,4.3,9.6,9.6,9.6v9.6c-10.6,0-19.2-8.6-19.2-19.2s8.6-19.2,19.2-19.2v9.6
		C-82.6-95.8-86.9-91.5-86.9-86.2z"/>
	<path class="st1" d="M-67.7-95.8c0-5.3-4.3-9.6-9.6-9.6v-9.6c10.6,0,19.2,8.6,19.2,19.2s-8.6,19.2-19.2,19.2v-9.6
		C-72-86.2-67.7-90.5-67.7-95.8z"/>
	<path class="st2" d="M-77.3-105.4v9.6c-3.6,0-6.7,1.9-8.3,4.8c-0.8,1.4-1.3,3.1-1.3,4.8c0,5.3,4.3,9.6,9.6,9.6v-9.6
		c3.6,0,6.7-1.9,8.3-4.8c0.8-1.4,1.3-3.1,1.3-4.8C-67.7-101.1-72-105.4-77.3-105.4z"/>
</g>
<g>
	<path d="M-45.7-93c0.4-0.6,0.9-1.1,1.5-1.4s1.2-0.5,2-0.5c0.6,0,1.2,0.1,1.8,0.3c0.5,0.2,1,0.5,1.4,0.9s0.7,0.9,0.9,1.6
		c0.2,0.6,0.3,1.4,0.3,2.3v7.4h-3.1v-7.4c0-0.4-0.1-0.8-0.2-1.1c-0.1-0.3-0.3-0.6-0.5-0.8c-0.2-0.2-0.4-0.3-0.7-0.4s-0.6-0.1-1-0.1
		c-0.5,0-1,0.1-1.4,0.3c-0.4,0.2-0.7,0.5-1,0.8v8.8h-3.1v-17.5h3.1V-93z"/>
	<path d="M-30.9-84.9h7.2v2.5h-11.5v-1.9l6.8-7.7h-6.7v-2.6h11v1.9L-30.9-84.9z"/>
	<path d="M-15.5-83.3c0.5,0,0.9-0.1,1.3-0.2c0.4-0.1,0.8-0.3,1.1-0.6c0.3-0.2,0.6-0.5,0.8-0.9s0.3-0.7,0.3-1.2h1.3
		c0,0.6-0.2,1.1-0.5,1.6s-0.6,0.9-1.1,1.3c-0.4,0.4-0.9,0.6-1.5,0.8s-1.2,0.3-1.8,0.3c-0.9,0-1.7-0.2-2.3-0.5
		c-0.7-0.3-1.2-0.8-1.7-1.4c-0.4-0.6-0.8-1.2-1-1.9s-0.3-1.5-0.3-2.3v-0.5c0-0.8,0.1-1.6,0.3-2.3c0.2-0.7,0.6-1.4,1-1.9
		c0.4-0.6,1-1,1.7-1.4c0.7-0.3,1.4-0.5,2.3-0.5c0.7,0,1.3,0.1,1.9,0.3c0.6,0.2,1.1,0.5,1.5,0.9s0.8,0.8,1,1.4
		c0.2,0.5,0.4,1.1,0.4,1.7h-1.3c0-0.5-0.1-0.9-0.3-1.3s-0.4-0.7-0.7-1s-0.7-0.5-1.1-0.7c-0.4-0.2-0.9-0.2-1.4-0.2
		c-0.7,0-1.3,0.1-1.8,0.4s-0.9,0.7-1.2,1.1c-0.3,0.5-0.5,1-0.7,1.6c-0.1,0.6-0.2,1.2-0.2,1.8v0.5c0,0.6,0.1,1.2,0.2,1.8
		c0.1,0.6,0.4,1.1,0.7,1.6s0.7,0.8,1.2,1.1C-16.8-83.5-16.2-83.3-15.5-83.3z"/>
	<path d="M1.5-94.9c0.3,0,0.7,0,1,0.1c0.3,0,0.6,0.1,0.8,0.2l-0.2,1.3c-0.3-0.1-0.6-0.1-0.9-0.2c-0.3,0-0.6-0.1-1-0.1
		c-1.1,0-2.1,0.3-2.9,0.8s-1.4,1.4-1.7,2.5v7.8h-1.4v-12.1h1.3l0.1,2.1v0.2c0.5-0.8,1.2-1.4,2-1.9C-0.5-94.6,0.4-94.9,1.5-94.9z"/>
	<path d="M12.5-82.2c-0.9,0-1.6-0.2-2.3-0.5S8.9-83.4,8.4-84c-0.5-0.5-0.9-1.2-1.2-1.9c-0.3-0.7-0.4-1.5-0.4-2.3v-0.5
		c0-0.9,0.2-1.7,0.4-2.4c0.3-0.8,0.7-1.4,1.2-2s1.1-1,1.7-1.3c0.7-0.3,1.4-0.5,2.1-0.5c0.8,0,1.5,0.1,2.2,0.4
		c0.6,0.3,1.2,0.7,1.6,1.2s0.7,1.1,1,1.8c0.2,0.7,0.3,1.4,0.3,2.2v0.8H8.2v0.3c0,0.6,0.1,1.3,0.3,1.8c0.2,0.6,0.5,1.1,0.9,1.5
		s0.8,0.8,1.4,1.1c0.5,0.3,1.1,0.4,1.8,0.4c0.8,0,1.4-0.1,2-0.4s1.1-0.7,1.6-1.2l0.9,0.6c-0.2,0.3-0.5,0.6-0.8,0.9s-0.7,0.5-1,0.7
		c-0.4,0.2-0.8,0.3-1.2,0.4C13.5-82.3,13-82.2,12.5-82.2z M12.3-93.7c-0.5,0-1.1,0.1-1.5,0.3c-0.5,0.2-0.9,0.5-1.2,0.9
		S9-91.7,8.7-91.2c-0.2,0.5-0.4,1-0.5,1.6h7.7v-0.1c0-0.5-0.1-1-0.3-1.5s-0.4-0.9-0.7-1.3s-0.7-0.7-1.1-0.9S12.9-93.7,12.3-93.7z"/>
	<path d="M29.6-82.4c-0.1-0.2-0.1-0.5-0.2-0.8c0-0.3-0.1-0.6-0.1-0.9c-0.2,0.3-0.5,0.5-0.8,0.8c-0.3,0.2-0.6,0.5-1,0.6
		c-0.4,0.2-0.8,0.3-1.2,0.4c-0.4,0.1-0.9,0.2-1.3,0.2c-0.6,0-1.1-0.1-1.6-0.2c-0.5-0.2-0.9-0.4-1.3-0.7s-0.7-0.7-0.9-1.1
		c-0.2-0.4-0.3-0.9-0.3-1.4c0-0.7,0.2-1.3,0.5-1.8s0.7-0.9,1.3-1.2c0.5-0.3,1.1-0.5,1.8-0.7c0.7-0.1,1.4-0.2,2.2-0.2h2.6v-1.4
		c0-0.5-0.1-0.9-0.3-1.2c-0.2-0.4-0.4-0.6-0.7-0.9c-0.3-0.2-0.7-0.4-1.1-0.5s-0.9-0.2-1.3-0.2s-0.9,0.1-1.2,0.2
		c-0.4,0.1-0.7,0.3-1.1,0.5c-0.3,0.2-0.6,0.5-0.7,0.8c-0.2,0.3-0.3,0.6-0.3,1h-1.4c0-0.5,0.2-1,0.4-1.4c0.3-0.4,0.6-0.8,1-1.1
		c0.4-0.3,0.9-0.6,1.5-0.8c0.6-0.2,1.2-0.3,1.8-0.3c0.6,0,1.3,0.1,1.8,0.2c0.6,0.2,1.1,0.4,1.5,0.7c0.4,0.3,0.7,0.7,1,1.2
		c0.2,0.5,0.4,1.1,0.4,1.7v5.9c0,0.4,0,0.8,0.1,1.2c0.1,0.4,0.2,0.8,0.3,1.2v0.1L29.6-82.4L29.6-82.4z M25.1-83.4
		c0.5,0,0.9,0,1.4-0.2c0.4-0.1,0.8-0.3,1.2-0.5c0.4-0.2,0.7-0.5,1-0.8s0.5-0.6,0.7-1v-2.7h-2.5c-0.6,0-1.2,0-1.7,0.1s-1,0.2-1.5,0.4
		c-0.4,0.2-0.8,0.5-1,0.8c-0.3,0.3-0.4,0.8-0.4,1.3c0,0.4,0.1,0.7,0.2,1c0.2,0.3,0.4,0.5,0.6,0.8c0.3,0.2,0.6,0.4,0.9,0.5
		C24.4-83.4,24.7-83.4,25.1-83.4z"/>
	<path d="M39.6-97.8v3.1h4.5v1.1h-4.5v7.7c0,0.5,0.1,0.9,0.2,1.2s0.3,0.6,0.6,0.8c0.2,0.2,0.5,0.3,0.8,0.4s0.7,0.1,1,0.1
		c0.4,0,0.8,0,1.2-0.1s0.7-0.1,1-0.2l0.2,1c-0.3,0.1-0.7,0.2-1.2,0.3c-0.5,0.1-0.9,0.1-1.4,0.1s-1-0.1-1.5-0.2s-0.9-0.3-1.2-0.6
		c-0.3-0.3-0.6-0.7-0.8-1.1c-0.2-0.5-0.3-1-0.3-1.7v-7.7h-3.4v-1.1h3.4v-3.1C38.2-97.8,39.6-97.8,39.6-97.8z"/>
	<path d="M49.3-94.6H55v11h4.2v1.2h-9.8v-1.2h4.3v-9.8h-4.3L49.3-94.6L49.3-94.6z M53.2-98c0-0.3,0.1-0.5,0.2-0.7
		c0.2-0.2,0.4-0.3,0.8-0.3s0.6,0.1,0.8,0.3c0.2,0.2,0.2,0.4,0.2,0.7s-0.1,0.5-0.2,0.7c-0.2,0.2-0.4,0.3-0.8,0.3s-0.6-0.1-0.8-0.3
		C53.3-97.5,53.2-97.7,53.2-98z"/>
	<path d="M67.5-84.3l0.1,0.2l0.1-0.2l4.2-10.4h1.4l-5.1,12.2h-1.1l-5.2-12.1h1.4L67.5-84.3z"/>
	<path d="M81.9-82.2c-0.9,0-1.6-0.2-2.3-0.5c-0.7-0.3-1.3-0.7-1.8-1.3c-0.5-0.5-0.9-1.2-1.2-1.9c-0.3-0.7-0.4-1.5-0.4-2.3v-0.5
		c0-0.9,0.2-1.7,0.4-2.4c0.3-0.8,0.7-1.4,1.2-2s1.1-1,1.7-1.3c0.7-0.3,1.4-0.5,2.1-0.5c0.8,0,1.5,0.1,2.2,0.4
		c0.6,0.3,1.2,0.7,1.6,1.2s0.7,1.1,1,1.8c0.2,0.7,0.3,1.4,0.3,2.2v0.8h-9.1v0.3c0,0.6,0.1,1.3,0.3,1.8c0.2,0.6,0.5,1.1,0.9,1.5
		s0.8,0.8,1.4,1.1c0.5,0.3,1.1,0.4,1.8,0.4c0.8,0,1.4-0.1,2-0.4s1.1-0.7,1.6-1.2l0.9,0.6c-0.2,0.3-0.5,0.6-0.8,0.9s-0.7,0.5-1,0.7
		c-0.4,0.2-0.8,0.3-1.2,0.4C83.1-82.3,82.4-82.2,81.9-82.2z M81.7-93.7c-0.5,0-1.1,0.1-1.5,0.3c-0.5,0.2-0.9,0.5-1.2,0.9
		c-0.3,0.4-0.6,0.8-0.9,1.3c-0.2,0.5-0.4,1-0.5,1.6h7.7v-0.1c0-0.5-0.1-1-0.3-1.5s-0.4-0.9-0.7-1.3c-0.3-0.4-0.7-0.7-1.1-0.9
		S82.3-93.7,81.7-93.7z"/>
</g>
<g>
	<path class="st3" d="M55.7,18.9c0.6,0.2,1.2,0.6,1.8,1.1l-1.1,1.4c-0.5-0.3-0.9-0.6-1.3-0.7s-0.9-0.2-1.4-0.2c-1,0-1.8,0.4-2.4,1.2
		s-0.9,2-0.9,3.7s0.3,2.8,0.9,3.6c0.6,0.8,1.4,1.2,2.4,1.2c0.5,0,1-0.1,1.4-0.2c0.4-0.2,0.9-0.4,1.4-0.7l1,1.5
		C56.3,31.5,55,32,53.6,32c-1.7,0-3.1-0.6-4.1-1.8S48,27.5,48,25.4c0-1.4,0.2-2.6,0.7-3.6c0.5-1,1.1-1.8,1.9-2.4
		c0.8-0.6,1.8-0.9,3-0.9C54.4,18.6,55,18.7,55.7,18.9z"/>
	<path class="st3" d="M69.1,20.4c1,1.2,1.5,2.8,1.5,4.9c0,1.3-0.2,2.5-0.7,3.5c-0.5,1-1.1,1.8-2,2.4S66,32,64.8,32
		c-1.8,0-3.2-0.6-4.2-1.8c-1-1.2-1.5-2.8-1.5-4.9c0-1.3,0.2-2.5,0.7-3.5c0.5-1,1.1-1.8,2-2.4c0.9-0.6,1.9-0.8,3.1-0.8
		C66.7,18.6,68.1,19.2,69.1,20.4z M61.5,25.3c0,3.3,1.1,4.9,3.3,4.9c2.2,0,3.3-1.6,3.3-4.9c0-3.3-1.1-4.9-3.3-4.9
		C62.6,20.4,61.5,22,61.5,25.3z"/>
	<path class="st3" d="M84.2,13.7v18h-2L82,29.9c-0.4,0.6-0.9,1.2-1.6,1.5c-0.6,0.4-1.3,0.5-2.1,0.5c-1.5,0-2.7-0.6-3.6-1.8
		c-0.9-1.2-1.3-2.8-1.3-4.8c0-1.3,0.2-2.5,0.6-3.5c0.4-1,1-1.8,1.8-2.4c0.8-0.6,1.7-0.9,2.7-0.9c1.3,0,2.5,0.5,3.5,1.6v-6.7
		L84.2,13.7z M80.5,29.8c0.5-0.3,1-0.8,1.4-1.4v-6.3c-0.4-0.6-0.9-1-1.3-1.3c-0.5-0.3-1-0.4-1.6-0.4c-1,0-1.8,0.4-2.3,1.2
		c-0.5,0.8-0.8,2.1-0.8,3.7c0,1.7,0.3,2.9,0.8,3.7c0.5,0.8,1.2,1.2,2.2,1.2C79.4,30.2,80,30.1,80.5,29.8z"/>
	<path class="st3" d="M98.4,26.1h-8.2c0.1,1.4,0.5,2.4,1.1,3.1c0.6,0.7,1.4,1,2.4,1c0.6,0,1.2-0.1,1.7-0.3c0.5-0.2,1.1-0.5,1.6-0.8
		l1,1.3c-1.4,1.1-2.9,1.6-4.5,1.6c-1.8,0-3.2-0.6-4.2-1.8s-1.5-2.8-1.5-4.8c0-1.3,0.2-2.5,0.6-3.5c0.4-1,1-1.8,1.8-2.4
		c0.8-0.6,1.7-0.9,2.8-0.9c1.7,0,3,0.6,3.9,1.7c0.9,1.1,1.4,2.7,1.4,4.6C98.5,25.3,98.4,25.7,98.4,26.1z M96.2,24.3
		c0-1.3-0.3-2.2-0.8-2.9c-0.5-0.7-1.3-1-2.3-1c-1.8,0-2.8,1.3-3,4h6V24.3z"/>
	<path class="st3" d="M111.5,20.2c1.1,1.2,1.7,2.9,1.7,5.1c0,1.4-0.3,2.6-0.8,3.6s-1.2,1.8-2.2,2.4c-0.9,0.6-2.1,0.9-3.4,0.9
		c-2,0-3.5-0.6-4.6-1.8c-1.1-1.2-1.7-2.9-1.7-5.1c0-1.4,0.3-2.6,0.8-3.6c0.5-1,1.2-1.8,2.2-2.4c0.9-0.6,2.1-0.9,3.4-0.9
		C108.8,18.4,110.3,19,111.5,20.2z M105.1,22.2c-0.4,0.7-0.6,1.7-0.6,3c0,1.4,0.2,2.4,0.6,3.1s1,1,1.8,1c0.8,0,1.4-0.3,1.7-1
		c0.4-0.7,0.6-1.7,0.6-3c0-1.4-0.2-2.4-0.6-3.1c-0.4-0.6-1-1-1.8-1C106,21.2,105.5,21.5,105.1,22.2z"/>
	<path class="st3" d="M123.7,18.6l-0.6,3.7c-0.5-0.1-0.9-0.2-1.2-0.2c-0.8,0-1.3,0.3-1.7,0.8c-0.4,0.5-0.7,1.3-0.9,2.4v6.4h-3.8
		V18.8h3.4l0.3,2.5c0.3-0.9,0.7-1.6,1.3-2.1c0.6-0.5,1.3-0.8,2-0.8C122.9,18.4,123.3,18.5,123.7,18.6z"/>
	<path class="st3" d="M136,20.2c0.8,1.2,1.2,2.9,1.2,5.1c0,1.3-0.2,2.5-0.6,3.5c-0.4,1-1,1.8-1.8,2.4s-1.7,0.9-2.7,0.9
		c-0.7,0-1.3-0.1-1.9-0.4c-0.6-0.3-1.1-0.7-1.5-1.2l-0.2,1.2h-3.4v-18l3.8-0.4v6.9c0.4-0.5,0.9-1,1.5-1.3c0.6-0.3,1.3-0.5,2-0.5
		C134,18.4,135.2,19,136,20.2z M133.3,25.3c0-1.5-0.2-2.6-0.5-3.2c-0.4-0.6-0.9-0.9-1.6-0.9c-0.9,0-1.6,0.5-2.2,1.5v5.4
		c0.2,0.4,0.5,0.7,0.9,0.9c0.3,0.2,0.7,0.3,1.1,0.3C132.5,29.3,133.3,28,133.3,25.3z"/>
	<path class="st3" d="M143.2,12.6c0.4,0.4,0.6,0.9,0.6,1.6s-0.2,1.2-0.6,1.6c-0.4,0.4-1,0.6-1.6,0.6s-1.2-0.2-1.6-0.6
		c-0.4-0.4-0.6-0.9-0.6-1.6s0.2-1.2,0.6-1.6c0.4-0.4,1-0.6,1.6-0.6S142.8,12.2,143.2,12.6z M143.5,18.8v12.9h-3.8V18.8H143.5z"/>
	<path class="st3" d="M154.6,31.1c-0.5,0.3-1,0.6-1.6,0.8c-0.6,0.2-1.2,0.3-1.9,0.3c-2.8,0-4.2-1.6-4.2-4.7v-6h-1.8v-2.7h1.8V16
		l3.8-0.4v3.2h3l-0.4,2.7h-2.6v5.9c0,0.6,0.1,1,0.3,1.3c0.2,0.3,0.5,0.4,0.9,0.4c0.4,0,0.9-0.1,1.4-0.4L154.6,31.1z"/>
</g>
<g>
	<path class="st0" d="M19.2,28.8v9.6C8.6,38.4,0,29.8,0,19.2S8.6,0,19.2,0v9.6c-5.3,0-9.6,4.3-9.6,9.6S13.9,28.8,19.2,28.8z"/>
	<path class="st1" d="M19.2,19.2V9.6c10.6,0,19.2,8.6,19.2,19.2S29.8,48,19.2,48v-9.6c5.3,0,9.6-4.3,9.6-9.6S24.5,19.2,19.2,19.2z"
		/>
	<path class="st3" d="M28.8,28.8c0-1.7-0.5-3.4-1.3-4.8c-1.6-2.9-4.7-4.8-8.3-4.8V9.6c-5.3,0-9.6,4.3-9.6,9.6c0,1.7,0.5,3.4,1.3,4.8
		c1.6,2.9,4.7,4.8,8.3,4.8v9.6C24.5,38.4,28.8,34.1,28.8,28.8z"/>
</g>
<path class="st3" d="M88,72c0,0-4,0-4,4s0,32,0,32s0,4,4,4s4-4,4-4V76C92,76,92,72,88,72z"/>
<path class="st3" d="M88,88h8c0,0,12,0,12,12c0,8,0,8,0,8s0,4-4,4s-4-4-4-4v-8c0,0,0-4-4-4s-8,0-8,0V88z"/>
<path class="st3" d="M112,92c0,0,0-4,4-4s16,0,16,0s4,0,4,4s-12,12-12,12h8c0,0,4,0,4,4s-4,4-4,4h-12h-4c0,0-4,0-4-4s12-12,12-12h-8
	C116,96,112,96,112,92z"/>
<polyline class="st4" points="200,-72 204,-68 208,-72 "/>
</svg>
